<?xml version="1.0" encoding="UTF-8" standalone="no"?>
<svg width="60px" height="60px" viewBox="0 0 60 60" version="1.1" xmlns="http://www.w3.org/2000/svg" xmlns:xlink="http://www.w3.org/1999/xlink">
    <defs></defs>
    <g stroke="none" stroke-width="1" fill="none" fill-rule="evenodd">
        <g fill="#32424C">
            <g transform="translate(3.000000, 4.500000)">
                <path d="M38.8983051,29.6760704 L38.8983051,24.2048703 C34.5406031,22.6107863 31.4237288,18.3623895 31.4237288,13.3719512 C31.4237288,7.01730901 36.4775993,1.86585366 42.7118644,1.86585366 C48.9461295,1.86585366 54,7.01730901 54,13.3719512 C54,18.3623895 50.8831257,22.6107863 46.5254237,24.2048703 L46.5254237,24.2048703 L46.5254237,44.4695122 L42.7118644,48.2185463 L38.8983051,44.4695122 L38.8983051,42.4702711 L36.8935725,40.4268293 L38.8983051,38.3833874 L38.8983051,38.3833874 L38.8983051,38.1166126 L38.8983051,38.1166126 L36.8935725,36.0731707 L38.8983051,34.0297289 L38.8983051,33.762954 L36.8935725,31.7195122 L38.8983051,29.6760704 L38.8983051,29.6760704 Z M42.7118644,11.5060976 C44.3968009,11.5060976 45.7627119,10.1138123 45.7627119,8.39634146 C45.7627119,6.6788706 44.3968009,5.28658537 42.7118644,5.28658537 C41.0269279,5.28658537 39.6610169,6.6788706 39.6610169,8.39634146 C39.6610169,10.1138123 41.0269279,11.5060976 42.7118644,11.5060976 L42.7118644,11.5060976 Z"></path>
                <g>
                    <path d="M24.9330508,47.1585183 C13.154339,47.1585183 3.57071186,37.3882866 3.57071186,25.3836951 C3.57071186,14.8811159 10.8991525,6.09356707 20.6188475,4.0532561 L24.9330508,9.62967073 C24.9330508,9.62967073 30.4965763,1.87642683 31.3605763,0.880993902 C29.3097966,0.323414634 27.1565085,0.0217682927 24.9330508,0.0217682927 C11.1911186,0.0217682927 0.0555254237,11.3761098 0.0555254237,25.3836951 C0.0555254237,39.3872378 11.1911186,50.7415793 24.9330508,50.7415793 C29.1178983,50.7415793 33.058678,49.6836402 36.5195593,47.8230732 L33.8250508,45.1741829 C31.1152881,46.4445183 28.1050169,47.1585183 24.9330508,47.1585183 Z"></path>
                    <path d="M33.1578305,38.4897622 L33.1578305,25.8265244 C29.5279322,22.8187683 27.1699322,17.9572866 27.1699322,12.4719878 C27.1699322,12.2026829 27.1778644,11.9355549 27.1891525,11.6693598 C27.190678,11.6304878 27.1928136,11.5919268 27.1946441,11.5530549 C27.2065424,11.3101829 27.2224068,11.0682439 27.2434576,10.8284817 C27.2452881,10.8057805 27.2468136,10.7830793 27.2486441,10.760378 C27.2703051,10.5237256 27.2947119,10.2883171 27.3249153,10.0547744 C26.5374915,9.92696341 25.7299322,9.86072561 24.9071186,9.86072561 C21.1612881,9.86072561 17.7312203,11.2367927 15.0763729,13.5196646 L18.4521356,16.9609207 L16.6182712,18.8298841 L13.2425085,15.388939 C11.2637288,17.7794085 9.97962712,20.7868537 9.70718644,24.0878598 L14.5342373,24.0878598 L14.5342373,26.7311524 L9.70718644,26.7311524 C9.97962712,30.0318476 11.2637288,33.0392927 13.2425085,35.4300732 L16.6182712,31.989128 L18.4521356,33.8580915 L15.0763729,37.2990366 C17.4215593,39.3160244 20.3720339,40.6249207 23.6105085,40.9029329 L23.6105085,36.2936524 L26.2037288,36.2936524 L26.2037288,40.9029329 C28.7514915,40.6843171 31.1207797,39.8272683 33.1578305,38.4897622 L33.1578305,38.4897622 Z M24.9071186,30.0741402 C22.3794915,30.0741402 20.3308475,27.985628 20.3308475,25.4095061 C20.3308475,22.8330732 22.3794915,20.744872 24.9071186,20.744872 C27.4344407,20.744872 29.4833898,22.8330732 29.4833898,25.4095061 C29.4833898,27.985628 27.4344407,30.0741402 24.9071186,30.0741402 L24.9071186,30.0741402 Z"></path>
                </g>
            </g>
        </g>
    </g>
</svg>