<?xml version="1.0" encoding="UTF-8" standalone="no"?>
<svg width="60px" height="60px" viewBox="0 0 60 60" version="1.1" xmlns="http://www.w3.org/2000/svg" xmlns:xlink="http://www.w3.org/1999/xlink">
    <defs></defs>
    <g stroke="none" stroke-width="1" fill="none" fill-rule="evenodd">
        <g>
            <path d="M44.644,27.584 C44.364,24.214 43.032,21.144 40.97,18.706 L37.59,22.084 L35.72,20.218 L39.098,16.84 C36.664,14.778 33.594,13.442 30.224,13.162 L30.224,17.94 L27.582,17.94 L27.582,13.162 C24.212,13.442 21.142,14.778 18.704,16.84 L22.082,20.22 L20.216,22.084 L16.836,18.706 C14.774,21.144 13.442,24.214 13.16,27.584 L17.942,27.584 L17.942,30.226 L13.16,30.226 C13.442,33.596 14.774,36.662 16.836,39.102 L20.216,35.724 L22.082,37.59 L18.704,40.968 C21.142,43.032 24.212,44.366 27.582,44.646 L27.582,39.868 L30.224,39.868 L30.224,44.646 C33.594,44.366 36.664,43.032 39.098,40.968 L35.72,37.59 L37.586,35.724 L40.97,39.102 C43.032,36.662 44.364,33.596 44.644,30.224 L39.868,30.224 L39.868,27.584 L44.644,27.584 L44.644,27.584 Z M28.902,33.828 C26.184,33.828 23.982,31.624 23.982,28.906 C23.982,26.186 26.184,23.984 28.902,23.984 C31.622,23.984 33.824,26.186 33.824,28.906 C33.824,31.624 31.622,33.828 28.902,33.828 L28.902,33.828 Z M28.902,3 C14.594,3 3,14.598 3,28.906 C3,43.21 14.594,54.808 28.902,54.808 C43.208,54.808 54.806,43.21 54.806,28.906 C54.806,14.598 43.208,3 28.902,3 L28.902,3 Z M28.902,51.148 C16.638,51.148 6.66,41.168 6.66,28.906 C6.66,18.178 14.29,9.202 24.41,7.118 L28.902,12.814 L33.394,7.118 C43.512,9.202 51.146,18.178 51.146,28.906 C51.146,41.168 41.164,51.148 28.902,51.148 L28.902,51.148 Z" fill="#32424C"></path>
            <circle fill="#FFFFFF" cx="42" cy="41" r="15"></circle>
            <path d="M42.1262295,57.4773966 C33.1222951,57.4773966 25.7963934,50.1587931 25.7963934,41.1616379 C25.7963934,32.1654655 33.1222951,24.8468621 42.1262295,24.8468621 C51.1301639,24.8468621 58.455082,32.1654655 58.455082,41.1616379 C58.455082,50.1587931 51.1301639,57.4773966 42.1262295,57.4773966 L42.1262295,57.4773966 Z M42.1262295,26.8113966 C34.2062295,26.8113966 27.7636066,33.2494483 27.7636066,41.1616379 C27.7636066,49.0738276 34.2062295,55.5118793 42.1262295,55.5118793 C50.0452459,55.5118793 56.4878689,49.0738276 56.4878689,41.1616379 C56.4878689,33.2494483 50.0452459,26.8113966 42.1262295,26.8113966 L42.1262295,26.8113966 Z" fill="#32424C"></path>
            <path d="M34.4189344,42.1441509 L47.462541,42.1441509 L43.5359836,46.068306 C43.1513934,46.4515819 43.1513934,47.0736681 43.5359836,47.4579267 C43.9205738,47.8421853 44.5422131,47.8421853 44.9268033,47.4579267 L50.5313934,41.8571853 C50.6228689,41.7657888 50.6946721,41.6576853 50.7448361,41.536806 C50.8441803,41.2970129 50.8441803,41.0257716 50.7448361,40.7859784 C50.6946721,40.6650991 50.6228689,40.5569957 50.5313934,40.4655991 L44.9268033,34.8648578 C44.735,34.6732198 44.4831967,34.5769095 44.2313934,34.5769095 C43.9795902,34.5769095 43.7277869,34.6732198 43.5359836,34.8648578 C43.1513934,35.2481336 43.1513934,35.8712026 43.5359836,36.2544784 L47.462541,40.1786336 L34.4189344,40.1786336 C33.8759836,40.1786336 33.4353279,40.6189095 33.4353279,41.1613922 C33.4353279,41.703875 33.8759836,42.1441509 34.4189344,42.1441509" fill="#32424C"></path>
        </g>
    </g>
</svg>