<?xml version="1.0" encoding="UTF-8" standalone="no"?>
<svg width="60px" height="60px" viewBox="0 0 60 60" version="1.1" xmlns="http://www.w3.org/2000/svg" xmlns:xlink="http://www.w3.org/1999/xlink">
    <defs></defs>
    <g stroke="none" stroke-width="1" fill="none" fill-rule="evenodd">
        <g>
            <path d="M44.1016296,27.6734815 C43.832,24.4282963 42.5493333,21.472 40.5637037,19.1242963 L37.3088889,22.3771852 L35.5081481,20.5802963 L38.761037,17.3274074 C36.4171852,15.3417778 33.4608889,14.0552593 30.2157037,13.7856296 L30.2157037,18.3866667 L27.6715556,18.3866667 L27.6715556,13.7856296 C24.4263704,14.0552593 21.4700741,15.3417778 19.1223704,17.3274074 L22.3752593,20.5822222 L20.5783704,22.3771852 L17.3235556,19.1242963 C15.3379259,21.472 14.0552593,24.4282963 13.7837037,27.6734815 L18.3885926,27.6734815 L18.3885926,30.2176296 L13.7837037,30.2176296 C14.0552593,33.4628148 15.3379259,36.4152593 17.3235556,38.7648889 L20.5783704,35.512 L22.3752593,37.3088889 L19.1223704,40.5617778 C21.4700741,42.5493333 24.4263704,43.8339259 27.6715556,44.1035556 L27.6715556,39.5025185 L30.2157037,39.5025185 L30.2157037,44.1035556 C33.4608889,43.8339259 36.4171852,42.5493333 38.761037,40.5617778 L35.5081481,37.3088889 L37.305037,35.512 L40.5637037,38.7648889 C42.5493333,36.4152593 43.832,33.4628148 44.1016296,30.2157037 L39.5025185,30.2157037 L39.5025185,27.6734815 L44.1016296,27.6734815 L44.1016296,27.6734815 Z M28.9426667,33.6862222 C26.3253333,33.6862222 24.2048889,31.5638519 24.2048889,28.9465185 C24.2048889,26.3272593 26.3253333,24.2068148 28.9426667,24.2068148 C31.5619259,24.2068148 33.6823704,26.3272593 33.6823704,28.9465185 C33.6823704,31.5638519 31.5619259,33.6862222 28.9426667,33.6862222 L28.9426667,33.6862222 Z M28.9426667,4 C15.1645926,4 4,15.1684444 4,28.9465185 C4,42.7207407 15.1645926,53.8891852 28.9426667,53.8891852 C42.7188148,53.8891852 53.8872593,42.7207407 53.8872593,28.9465185 C53.8872593,15.1684444 42.7188148,4 28.9426667,4 L28.9426667,4 Z M28.9426667,50.3647407 C17.1328889,50.3647407 7.52444444,40.7543704 7.52444444,28.9465185 C7.52444444,18.6158519 14.8718519,9.9722963 24.617037,7.96548148 L28.9426667,13.4505185 L33.2682963,7.96548148 C43.0115556,9.9722963 50.3628148,18.6158519 50.3628148,28.9465185 C50.3628148,40.7543704 40.7505185,50.3647407 28.9426667,50.3647407 L28.9426667,50.3647407 Z" fill="#32424C"></path>
            <circle fill="#FFFFFF" cx="42" cy="41" r="15"></circle>
            <path d="M42.1262295,57.4773966 C33.1222951,57.4773966 25.7963934,50.1587931 25.7963934,41.1616379 C25.7963934,32.1654655 33.1222951,24.8468621 42.1262295,24.8468621 C51.1301639,24.8468621 58.455082,32.1654655 58.455082,41.1616379 C58.455082,50.1587931 51.1301639,57.4773966 42.1262295,57.4773966 L42.1262295,57.4773966 Z M42.1262295,26.8113966 C34.2062295,26.8113966 27.7636066,33.2494483 27.7636066,41.1616379 C27.7636066,49.0738276 34.2062295,55.5118793 42.1262295,55.5118793 C50.0452459,55.5118793 56.4878689,49.0738276 56.4878689,41.1616379 C56.4878689,33.2494483 50.0452459,26.8113966 42.1262295,26.8113966 L42.1262295,26.8113966 Z" fill="#32424C"></path>
            <path d="M34.4189344,42.1441509 L47.462541,42.1441509 L43.5359836,46.068306 C43.1513934,46.4515819 43.1513934,47.0736681 43.5359836,47.4579267 C43.9205738,47.8421853 44.5422131,47.8421853 44.9268033,47.4579267 L50.5313934,41.8571853 C50.6228689,41.7657888 50.6946721,41.6576853 50.7448361,41.536806 C50.8441803,41.2970129 50.8441803,41.0257716 50.7448361,40.7859784 C50.6946721,40.6650991 50.6228689,40.5569957 50.5313934,40.4655991 L44.9268033,34.8648578 C44.735,34.6732198 44.4831967,34.5769095 44.2313934,34.5769095 C43.9795902,34.5769095 43.7277869,34.6732198 43.5359836,34.8648578 C43.1513934,35.2481336 43.1513934,35.8712026 43.5359836,36.2544784 L47.462541,40.1786336 L34.4189344,40.1786336 C33.8759836,40.1786336 33.4353279,40.6189095 33.4353279,41.1613922 C33.4353279,41.703875 33.8759836,42.1441509 34.4189344,42.1441509" fill="#32424C" transform="translate(42.127336, 41.161515) rotate(-180.000000) translate(-42.127336, -41.161515) "></path>
        </g>
    </g>
</svg>