<svg width="946.66667" height="200" xmlns="http://www.w3.org/2000/svg">

 <g>
  <title>background</title>
  <rect fill="none" id="canvas_background" height="202" width="948.66667" y="-1" x="-1"/>
 </g>
 <g>
  <title>Layer 1</title>
  <g id="svg_1" transform="translate(0,195) scale(0.10000000149011612,-0.10000000149011612) " fill="#0171bf">
   <path id="svg_2" d="m6098,1173c-2,-538 0,-750 8,-761c9,-13 18,-14 45,-6c31,9 34,14 33,44c-2,42 -5,321 -4,336c0,6 55,66 122,133l123,123l28,-34c15,-18 37,-52 48,-75c11,-22 26,-44 34,-47c8,-3 15,-13 15,-22c0,-9 14,-33 30,-54c17,-21 30,-41 30,-45c0,-4 14,-24 30,-45c17,-21 30,-41 30,-45c0,-4 14,-24 30,-45c17,-21 30,-41 30,-45c0,-4 14,-24 30,-45c17,-21 30,-41 30,-45c0,-5 16,-28 36,-51c35,-43 60,-53 98,-38c16,6 23,34 9,34c-7,0 -78,98 -108,148c-5,9 -22,33 -37,53c-16,20 -28,40 -28,44c0,4 -13,24 -30,45c-16,21 -30,41 -30,45c0,4 -13,24 -30,45c-16,21 -30,41 -30,45c0,4 -13,24 -30,45c-16,21 -30,41 -30,45c0,4 -13,24 -30,45c-16,21 -30,42 -30,48c0,5 -7,12 -15,16c-8,3 -15,13 -15,22c0,16 248,267 348,354c39,33 44,42 32,51c-28,19 -96,4 -125,-27c-104,-113 -550,-554 -558,-551c-6,2 -9,175 -8,478c1,261 -1,487 -4,502c-6,23 -13,27 -41,27l-34,0l-2,-747z"/>
   <path id="svg_3" d="m4313,1792c-9,-5 -10,-43 -4,-147c5,-77 7,-143 4,-147c-2,-5 -35,-8 -74,-8l-69,0l0,-41c0,-68 10,-78 70,-65c35,7 53,7 61,-1c7,-7 11,-147 13,-424c3,-414 8,-486 36,-524c32,-43 120,-63 199,-45c94,20 99,23 99,69c1,50 -18,69 -54,52c-38,-17 -119,-14 -135,6c-20,24 -27,854 -7,870c9,7 35,7 88,-3c72,-13 76,-12 92,7c11,12 16,34 15,57l-2,37l-104,3l-104,3l7,148c6,132 5,149 -9,155c-23,8 -107,7 -122,-2z"/>
   <path id="svg_4" d="m8869,1790c-14,-8 -15,-28 -11,-155l5,-145l-72,0c-57,0 -73,-3 -78,-16c-13,-34 11,-49 78,-49l64,0l5,-475c4,-426 7,-478 22,-507c12,-20 28,-34 48,-38c16,-4 32,-11 35,-16c9,-14 53,-11 117,8c53,16 58,20 58,47l0,29l-68,-7c-87,-9 -117,2 -127,46c-11,46 -22,879 -12,900c6,15 19,16 107,11l100,-6l0,36l0,36l-107,3l-108,3l4,148c2,98 0,147 -7,147c-6,0 -16,2 -24,5c-7,2 -20,0 -29,-5z"/>
   <path id="svg_5" d="m490,1503c-71,-25 -112,-46 -158,-80c-62,-46 -142,-157 -142,-200c0,-10 -7,-27 -15,-37c-22,-29 -22,-458 0,-476c8,-7 15,-25 15,-40c0,-15 7,-33 15,-40c8,-7 15,-18 15,-25c0,-19 65,-93 113,-129c71,-52 157,-84 257,-94c50,-5 173,21 239,51c53,24 171,132 171,157c0,10 7,23 15,30c8,7 15,25 15,39c0,15 7,36 15,47c8,10 15,36 15,57l0,37l-63,0c-36,0 -68,-5 -75,-12c-7,-7 -12,-31 -12,-54c0,-25 -6,-47 -15,-54c-8,-7 -15,-20 -15,-29c0,-18 -63,-91 -79,-91c-6,0 -14,-6 -18,-13c-25,-39 -221,-64 -265,-33c-12,9 -29,16 -38,16c-19,0 -130,115 -152,158c-10,19 -18,44 -18,56c0,12 -7,31 -15,42c-11,14 -14,52 -15,157c0,142 10,195 56,287c23,45 119,140 143,140c9,0 26,7 37,15c13,10 44,14 97,15c75,0 94,-5 157,-41c8,-5 22,-12 30,-16c24,-11 80,-77 80,-94c0,-9 7,-22 15,-29c9,-7 15,-29 15,-52l0,-39l63,3l62,3l-3,65c-2,38 -9,71 -18,81c-8,8 -14,23 -14,31c0,23 -118,135 -165,157c-101,47 -261,63 -345,34z"/>
   <path id="svg_6" d="m1670,1510c-8,-5 -32,-15 -52,-20c-38,-11 -116,-77 -136,-116c-6,-12 -21,-24 -33,-27c-19,-5 -20,-3 -15,26c3,18 8,51 12,75l7,42l-69,0l-69,0l2,-537l2,-538l65,-3l66,-3l0,364c0,304 2,366 15,383c8,10 15,31 15,45c0,15 7,32 15,39c8,7 15,17 15,22c0,14 61,66 103,88c26,14 57,20 102,20l65,0l2,60c0,33 1,66 2,73c1,15 -93,22 -114,7z"/>
   <path id="svg_7" d="m3400,1503c-25,-9 -60,-23 -79,-31c-40,-20 -117,-94 -126,-122c-4,-13 -13,-20 -23,-18c-15,3 -16,15 -13,81l3,77l-68,0l-69,0l2,-747l3,-748l66,-3l66,-3l-3,288c-3,264 -2,288 14,291c9,2 17,-2 17,-8c0,-15 90,-110 115,-121c11,-5 27,-13 35,-18c39,-24 139,-43 200,-38c81,6 175,28 192,45c6,6 18,12 26,12c22,0 152,125 152,146c0,6 7,17 15,24c8,7 15,20 15,30c0,10 7,23 15,30c8,7 15,27 15,44c1,17 7,42 15,56c11,19 14,64 14,180c0,116 -3,161 -14,180c-8,14 -14,39 -15,56c0,17 -7,37 -15,44c-8,7 -15,19 -15,26c0,40 -145,204 -181,204c-9,0 -22,7 -29,15c-7,8 -23,15 -35,15c-12,0 -39,7 -58,15c-46,19 -176,18 -237,-2zm245,-125c21,-9 62,-36 90,-61c46,-41 65,-69 100,-152c15,-35 35,-159 35,-215c0,-91 -27,-209 -61,-270c-5,-8 -13,-24 -18,-35c-14,-31 -72,-81 -121,-105c-25,-12 -53,-26 -62,-31c-29,-15 -180,-10 -202,6c-11,8 -25,15 -32,15c-35,0 -154,107 -154,138c0,5 -7,15 -15,22c-8,7 -15,25 -15,40c0,15 -7,33 -15,40c-13,11 -15,40 -13,184c3,162 10,206 39,256c5,8 13,24 19,35c20,42 113,125 141,125c8,1 25,7 39,15c33,19 189,15 245,-7z"/>
   <path id="svg_8" d="m5210,1504c-19,-7 -44,-13 -55,-14c-11,0 -38,-12 -60,-25c-22,-14 -47,-28 -55,-32c-57,-26 -170,-194 -170,-253c-1,-14 -7,-36 -15,-50c-21,-36 -21,-307 0,-357c8,-19 15,-45 15,-57c0,-31 55,-136 93,-176c43,-47 112,-100 129,-100c8,0 20,-6 26,-13c20,-19 129,-40 212,-40c108,0 192,23 289,78c31,17 121,114 121,130c0,7 7,18 15,25c8,7 15,23 15,35c0,12 7,28 15,35c8,7 15,29 15,50c0,21 7,54 15,73c21,50 21,231 0,271c-8,15 -15,47 -15,71c0,26 -6,47 -15,55c-8,7 -15,23 -15,35c0,12 -7,28 -15,35c-8,7 -15,19 -15,27c0,19 -136,153 -156,153c-9,0 -28,6 -42,14c-90,45 -253,60 -332,30zm232,-118c18,-8 40,-17 48,-21c26,-10 55,-29 76,-50c35,-34 84,-115 84,-139c0,-12 7,-31 15,-42c21,-28 21,-340 0,-368c-8,-11 -15,-30 -15,-42c0,-24 -49,-105 -84,-139c-21,-21 -50,-40 -76,-50c-8,-4 -30,-13 -48,-21c-48,-20 -167,-18 -232,5c-56,20 -160,101 -160,125c0,8 -7,19 -15,26c-8,7 -15,23 -15,35c0,12 -6,28 -14,34c-7,6 -16,43 -20,88c-3,42 -11,82 -16,87c-14,14 -12,58 5,99c8,20 15,58 15,85c0,32 5,54 15,62c8,7 15,21 15,32c0,46 119,177 162,178c7,1 24,7 38,15c34,19 178,20 222,1z"/>
   <path id="svg_9" d="m7345,1500c-116,-33 -177,-75 -228,-158c-26,-42 -52,-136 -42,-152c3,-5 21,-10 40,-10c34,0 45,13 45,54c0,38 38,103 77,132c63,48 94,61 178,73c118,18 218,-1 280,-52c60,-50 85,-107 85,-192c0,-109 -45,-145 -194,-152c-46,-3 -89,-11 -100,-19c-13,-8 -46,-14 -86,-14c-41,-1 -72,-6 -84,-15c-11,-8 -32,-15 -47,-15c-36,0 -136,-55 -171,-94c-54,-61 -68,-102 -67,-196c0,-70 4,-93 24,-130c14,-25 27,-53 31,-62c17,-48 177,-118 268,-118c58,0 182,26 218,45c14,8 31,15 38,15c15,0 96,63 121,94c29,36 49,34 49,-7c0,-40 42,-104 76,-118c42,-15 122,-11 132,7c20,35 3,53 -52,56c-49,3 -52,5 -69,42c-17,36 -19,74 -21,425l-2,386l-34,52c-18,28 -53,64 -78,79c-94,60 -264,79 -387,44zm433,-631c-3,-85 -10,-145 -17,-152c-6,-6 -11,-23 -11,-39c0,-19 -15,-43 -54,-82c-30,-31 -65,-60 -78,-66c-12,-5 -30,-14 -38,-19c-68,-39 -91,-43 -204,-44c-94,0 -120,3 -134,16c-10,10 -25,17 -33,17c-19,0 -79,69 -85,100c-3,14 -10,44 -16,68c-8,31 -8,50 1,68c6,14 11,33 11,44c0,27 87,110 115,110c12,0 28,7 35,15c7,8 27,15 44,15c17,0 40,7 50,15c13,10 44,15 89,15c37,0 77,5 87,10c11,6 53,13 94,17c45,3 81,12 87,19c6,8 23,14 37,14l25,0l-5,-141z"/>
   <path id="svg_10" d="m8500,1505c-19,-7 -44,-14 -55,-14c-24,-1 -125,-86 -125,-105c0,-7 -12,-18 -26,-25l-27,-12l7,48c12,89 13,86 -22,96c-21,7 -36,7 -43,0c-12,-12 -14,-1072 -2,-1084c5,-5 24,-6 43,-3l35,6l0,393c0,360 1,395 18,412c9,11 17,31 17,44c0,35 82,124 137,149c25,11 65,20 89,20c38,0 44,3 50,24c15,61 -22,80 -96,51z"/>
   <path id="svg_11" d="m1877,1494c-12,-13 -7,-51 8,-64c8,-7 15,-21 15,-32c0,-11 7,-26 15,-34c8,-9 15,-26 15,-38c0,-13 7,-29 15,-36c8,-7 15,-24 15,-39c0,-14 7,-35 15,-45c8,-11 15,-30 15,-42c0,-12 7,-27 15,-34c8,-7 15,-22 15,-34c0,-12 7,-31 15,-42c8,-10 15,-28 15,-39c0,-11 7,-29 15,-39c8,-11 15,-29 15,-40c0,-12 7,-30 15,-40c8,-11 15,-29 15,-40c0,-12 7,-30 15,-40c8,-11 15,-30 15,-42c0,-12 7,-27 15,-34c8,-7 15,-22 15,-34c0,-12 7,-31 15,-42c8,-10 15,-27 15,-37c0,-11 6,-31 13,-45c8,-15 21,-42 30,-60c9,-19 17,-40 17,-49c0,-8 8,-28 17,-44c15,-26 15,-30 1,-46c-8,-10 -18,-29 -21,-43c-9,-41 -33,-100 -45,-112c-7,-7 -12,-19 -12,-28c0,-8 -16,-33 -36,-55l-35,-40l-85,2l-84,2l0,-60l0,-59l109,0c84,0 111,3 121,15c7,8 18,15 24,15c18,0 88,82 102,120c3,8 12,27 20,42c8,14 14,35 14,45c0,11 7,28 15,39c8,10 15,31 15,45c0,15 7,32 15,39c8,7 15,22 15,34c0,12 7,31 15,42c8,10 15,31 15,45c0,15 7,32 15,39c8,7 15,25 15,40c0,15 7,33 15,40c8,7 15,25 15,40c0,15 7,33 15,40c8,7 15,25 15,40c0,15 7,33 15,40c8,7 15,25 15,40c0,15 7,33 15,40c8,7 15,25 15,40c0,15 7,33 15,40c8,7 15,25 15,40c0,15 7,33 15,40c8,7 15,26 15,42c0,16 7,36 15,44c8,9 15,25 15,38c0,12 7,31 15,42c8,10 15,28 15,39c0,11 7,29 15,39c8,11 15,32 15,47c0,14 7,32 15,39c8,7 15,21 15,32c0,11 6,32 14,46c28,55 39,82 35,86c-6,6 -30,8 -84,7c-45,-1 -52,-4 -67,-32c-10,-17 -18,-41 -18,-54c0,-12 -7,-28 -15,-35c-8,-7 -15,-27 -15,-45c0,-18 -7,-38 -15,-45c-8,-7 -15,-22 -15,-34c0,-11 -7,-30 -15,-40c-8,-11 -15,-32 -15,-47c0,-14 -7,-32 -15,-39c-8,-7 -15,-25 -15,-40c0,-15 -7,-33 -15,-40c-8,-7 -15,-22 -15,-34c0,-12 -7,-31 -15,-42c-8,-10 -15,-30 -15,-44c0,-14 -7,-34 -15,-44c-8,-11 -15,-29 -15,-40c0,-12 -7,-30 -15,-40c-8,-11 -15,-30 -15,-42c0,-12 -7,-35 -15,-50c-8,-16 -15,-41 -15,-55c0,-26 -16,-39 -45,-39c-7,0 -15,15 -18,33c-5,36 -22,88 -43,130c-8,16 -14,39 -14,52c0,12 -7,28 -15,35c-8,7 -15,23 -15,35c0,13 -7,37 -15,54c-8,17 -22,45 -30,62c-8,17 -15,38 -15,48c0,9 -7,26 -15,37c-8,10 -15,28 -15,40c0,11 -7,29 -15,40c-8,10 -15,28 -15,40c0,11 -7,29 -15,40c-8,10 -15,28 -15,40c0,11 -7,29 -15,40c-8,10 -15,28 -15,40c0,11 -7,29 -15,40c-8,10 -15,31 -15,47c0,26 -2,27 -54,27c-30,0 -61,2 -68,5c-8,3 -17,2 -21,-1z"/>
  </g>
 </g>
</svg>