<?xml version="1.0" encoding="UTF-8" standalone="no"?>
<svg width="60px" height="60px" viewBox="0 0 60 60" version="1.1" xmlns="http://www.w3.org/2000/svg" xmlns:xlink="http://www.w3.org/1999/xlink">
    <defs></defs>
    <g stroke="none" stroke-width="1" fill="none" fill-rule="evenodd">
        <g fill="#919191">
            <path d="M45.741,28.68 C45.461,25.31 44.129,22.24 42.067,19.802 L38.687,23.18 L36.817,21.314 L40.195,17.936 C37.761,15.874 34.691,14.538 31.321,14.258 L31.321,19.036 L28.679,19.036 L28.679,14.258 C25.309,14.538 22.239,15.874 19.801,17.936 L23.179,21.316 L21.313,23.18 L17.933,19.802 C15.871,22.24 14.539,25.31 14.257,28.68 L19.039,28.68 L19.039,31.322 L14.257,31.322 C14.539,34.692 15.871,37.758 17.933,40.198 L21.313,36.82 L23.179,38.686 L19.801,42.064 C22.239,44.128 25.309,45.462 28.679,45.742 L28.679,40.964 L31.321,40.964 L31.321,45.742 C34.691,45.462 37.761,44.128 40.195,42.064 L36.817,38.686 L38.683,36.82 L42.067,40.198 C44.129,37.758 45.461,34.692 45.741,31.32 L40.965,31.32 L40.965,28.68 L45.741,28.68 L45.741,28.68 Z M29.999,34.924 C27.281,34.924 25.079,32.72 25.079,30.002 C25.079,27.282 27.281,25.08 29.999,25.08 C32.719,25.08 34.921,27.282 34.921,30.002 C34.921,32.72 32.719,34.924 29.999,34.924 L29.999,34.924 Z M29.999,4.096 C15.691,4.096 4.097,15.694 4.097,30.002 C4.097,44.306 15.691,55.904 29.999,55.904 C44.305,55.904 55.903,44.306 55.903,30.002 C55.903,15.694 44.305,4.096 29.999,4.096 L29.999,4.096 Z M29.999,52.244 C17.735,52.244 7.757,42.264 7.757,30.002 C7.757,19.274 15.387,10.298 25.507,8.214 L29.999,13.91 L34.491,8.214 C44.609,10.298 52.243,19.274 52.243,30.002 C52.243,42.264 42.261,52.244 29.999,52.244 L29.999,52.244 Z"></path>
        </g>
    </g>
</svg>