<?xml version="1.0" encoding="UTF-8" standalone="no"?>
<svg width="60px" height="60px" viewBox="0 0 60 60" version="1.1" xmlns="http://www.w3.org/2000/svg" xmlns:xlink="http://www.w3.org/1999/xlink">
    <defs></defs>
    <g stroke="none" stroke-width="1" fill="none" fill-rule="evenodd">
        <g fill="#32424C">
            <g transform="translate(5.000000, 7.500000)">
                <path d="M49.9057294,11.7816065 C49.9290869,10.64008 49.6176544,7.97548842 46.1171535,7.04712927 L11.2881041,0.0991102257 L10.9642143,0.0666717197 C8.38866784,0.0666717197 6.29272736,2.14582549 6.29272736,4.70074401 L6.29272736,10.9134903 L4.73556505,10.9088562 C2.16936155,10.919669 0.0827640531,12.992644 0.0827640531,15.5413838 L0.0827640531,40.2487125 C0.0827640531,42.803631 2.17870453,44.8827848 4.75425099,44.8827848 L45.2638286,44.8827848 C47.8393751,44.8827848 49.9353155,42.803631 49.9353155,40.2487125 L49.9057294,11.7816065 Z M10.8287412,3.16223201 L45.1844133,10.0592763 C45.1968706,10.065455 44.9290387,10.9243031 43.6817517,10.9073115 L9.40705199,10.9073115 L9.40705199,4.70074401 C9.40705199,3.89287074 10.0330312,3.2301984 10.8287412,3.16223201 L10.8287412,3.16223201 Z M46.8194337,40.2487125 C46.8194337,41.0998371 46.121825,41.7934033 45.2638286,41.7934033 L4.75425099,41.7934033 C3.8946974,41.7934033 3.19708868,41.0998371 3.19708868,40.2487125 L3.19708868,15.5413838 C3.19708868,14.6902592 3.8946974,13.9982377 4.75425099,13.9982377 L43.6864232,13.9982377 C45.2139994,13.9982377 46.8194337,13.4807663 46.8194337,12.458181 L46.8194337,40.2487125 L46.8194337,40.2487125 Z"></path>
                <path d="M9.41452754,24.8157071 C11.1272775,24.8157071 12.5145274,26.2029571 12.5145274,27.915707 C12.5145274,29.628457 11.1272775,31.0157069 9.41452754,31.0157069 C7.70177759,31.0157069 6.31452763,29.628457 6.31452763,27.915707 C6.31452763,26.2029571 7.70177759,24.8157071 9.41452754,24.8157071"></path>
            </g>
        </g>
    </g>
</svg>